<svg width="124" height="124" viewBox="0 0 24 24" fill="none" xmlns="http://www.w3.org/2000/svg">
<path d="M19.07 5.936C17.8666 4.72102 16.3701 3.83689 14.7253 3.36901C13.0804 2.90113 11.3427 2.86531 9.68 3.265C9.42847 3.33007 9.21214 3.49048 9.07681 3.71226C8.94149 3.93405 8.89779 4.19979 8.95498 4.45323C9.01217 4.70667 9.16574 4.9279 9.38319 5.07008C9.60065 5.21227 9.8649 5.26424 10.12 5.215C11.297 4.93437 12.5223 4.92371 13.704 5.18381C14.8857 5.44391 15.9933 5.96803 16.9437 6.71692C17.8941 7.4658 18.6627 8.42003 19.192 9.50813C19.7213 10.5962 19.9975 11.79 20 13H19.66C19.3948 13 19.1404 13.1054 18.9529 13.2929C18.7654 13.4804 18.66 13.7348 18.66 14C18.66 14.2652 18.7654 14.5196 18.9529 14.7071C19.1404 14.8946 19.3948 15 19.66 15H20V15.34C20 15.6052 20.1054 15.8596 20.2929 16.0471C20.4804 16.2346 20.7348 16.34 21 16.34C21.2652 16.34 21.5196 16.2346 21.7071 16.0471C21.8946 15.8596 22 15.6052 22 15.34V13C22.0051 11.687 21.7486 10.3861 21.2456 9.17327C20.7425 7.96043 20.0029 6.85994 19.07 5.936V5.936ZM3.706 2.293C3.5174 2.11084 3.26479 2.01004 3.0026 2.01232C2.7404 2.0146 2.48959 2.11977 2.30418 2.30518C2.11877 2.49058 2.0136 2.7414 2.01132 3.00359C2.00904 3.26579 2.10984 3.51839 2.292 3.707L4.727 6.142C2.97351 7.99456 1.99746 10.4492 2 13V20C2 20.2652 2.10535 20.5196 2.29289 20.7071C2.48043 20.8946 2.73478 21 3 21H6C6.7954 20.9992 7.558 20.6829 8.12044 20.1204C8.68288 19.558 8.9992 18.7954 9 18V16C8.9992 15.2046 8.68288 14.442 8.12044 13.8796C7.558 13.3171 6.7954 13.0008 6 13H4C3.99897 10.9799 4.76573 9.03493 6.145 7.559L15 16.414V18C15.0008 18.7954 15.3171 19.558 15.8796 20.1204C16.442 20.6829 17.2046 20.9992 18 21H19.586L20.293 21.707C20.4816 21.8892 20.7342 21.9899 20.9964 21.9877C21.2586 21.9854 21.5094 21.8802 21.6948 21.6948C21.8802 21.5094 21.9854 21.2586 21.9877 20.9964C21.99 20.7342 21.8892 20.4816 21.707 20.293L3.706 2.293ZM6 15C6.26513 15.0003 6.51933 15.1057 6.70681 15.2932C6.89429 15.4807 6.99973 15.7349 7 16V18C6.99973 18.2651 6.89429 18.5193 6.70681 18.7068C6.51933 18.8943 6.26513 18.9997 6 19H4V15H6Z" fill="black"/>
</svg>
