<svg width="62" height="15" viewBox="0 0 62 15" fill="none" xmlns="http://www.w3.org/2000/svg">
<path d="M7.428 10.692V12H1.128V3.6H7.26V4.908H2.688V7.092H6.744V8.376H2.688V10.692H7.428ZM15.1685 5.592V12H13.7405V11.184C13.5005 11.472 13.2005 11.696 12.8405 11.856C12.4805 12.008 12.0925 12.084 11.6765 12.084C10.8205 12.084 10.1445 11.848 9.64847 11.376C9.16047 10.896 8.91647 10.188 8.91647 9.252V5.592H10.4165V9.048C10.4165 9.624 10.5445 10.056 10.8005 10.344C11.0645 10.624 11.4365 10.764 11.9165 10.764C12.4525 10.764 12.8765 10.6 13.1885 10.272C13.5085 9.936 13.6685 9.456 13.6685 8.832V5.592H15.1685ZM20.9844 11.652C20.8084 11.796 20.5924 11.904 20.3364 11.976C20.0884 12.048 19.8244 12.084 19.5444 12.084C18.8404 12.084 18.2964 11.9 17.9124 11.532C17.5284 11.164 17.3364 10.628 17.3364 9.924V6.84H16.2804V5.64H17.3364V4.176H18.8364V5.64H20.5524V6.84H18.8364V9.888C18.8364 10.2 18.9124 10.44 19.0644 10.608C19.2164 10.768 19.4364 10.848 19.7244 10.848C20.0604 10.848 20.3404 10.76 20.5644 10.584L20.9844 11.652ZM28.0314 8.832C28.0314 8.936 28.0234 9.084 28.0074 9.276H22.9794C23.0674 9.748 23.2954 10.124 23.6634 10.404C24.0394 10.676 24.5034 10.812 25.0554 10.812C25.7594 10.812 26.3394 10.58 26.7954 10.116L27.5994 11.04C27.3114 11.384 26.9474 11.644 26.5074 11.82C26.0674 11.996 25.5714 12.084 25.0194 12.084C24.3154 12.084 23.6954 11.944 23.1594 11.664C22.6234 11.384 22.2074 10.996 21.9114 10.5C21.6234 9.996 21.4794 9.428 21.4794 8.796C21.4794 8.172 21.6194 7.612 21.8994 7.116C22.1874 6.612 22.5834 6.22 23.0874 5.94C23.5914 5.66 24.1594 5.52 24.7914 5.52C25.4154 5.52 25.9714 5.66 26.4594 5.94C26.9554 6.212 27.3394 6.6 27.6114 7.104C27.8914 7.6 28.0314 8.176 28.0314 8.832ZM24.7914 6.72C24.3114 6.72 23.9034 6.864 23.5674 7.152C23.2394 7.432 23.0394 7.808 22.9674 8.28H26.6034C26.5394 7.816 26.3434 7.44 26.0154 7.152C25.6874 6.864 25.2794 6.72 24.7914 6.72ZM30.9003 6.528C31.3323 5.856 32.0923 5.52 33.1803 5.52V6.948C33.0523 6.924 32.9363 6.912 32.8323 6.912C32.2483 6.912 31.7923 7.084 31.4643 7.428C31.1363 7.764 30.9723 8.252 30.9723 8.892V12H29.4723V5.592H30.9003V6.528ZM38.0048 5.52C38.6288 5.52 39.1848 5.656 39.6728 5.928C40.1688 6.2 40.5568 6.584 40.8368 7.08C41.1168 7.576 41.2568 8.148 41.2568 8.796C41.2568 9.444 41.1168 10.02 40.8368 10.524C40.5568 11.02 40.1688 11.404 39.6728 11.676C39.1848 11.948 38.6288 12.084 38.0048 12.084C37.1408 12.084 36.4568 11.796 35.9528 11.22V14.328H34.4528V5.592H35.8808V6.432C36.1288 6.128 36.4328 5.9 36.7928 5.748C37.1608 5.596 37.5648 5.52 38.0048 5.52ZM37.8368 10.8C38.3888 10.8 38.8408 10.616 39.1928 10.248C39.5528 9.88 39.7328 9.396 39.7328 8.796C39.7328 8.196 39.5528 7.712 39.1928 7.344C38.8408 6.976 38.3888 6.792 37.8368 6.792C37.4768 6.792 37.1528 6.876 36.8648 7.044C36.5768 7.204 36.3488 7.436 36.1808 7.74C36.0128 8.044 35.9288 8.396 35.9288 8.796C35.9288 9.196 36.0128 9.548 36.1808 9.852C36.3488 10.156 36.5768 10.392 36.8648 10.56C37.1528 10.72 37.4768 10.8 37.8368 10.8ZM48.7033 8.832C48.7033 8.936 48.6953 9.084 48.6793 9.276H43.6513C43.7393 9.748 43.9673 10.124 44.3353 10.404C44.7113 10.676 45.1753 10.812 45.7273 10.812C46.4313 10.812 47.0113 10.58 47.4673 10.116L48.2713 11.04C47.9833 11.384 47.6193 11.644 47.1793 11.82C46.7393 11.996 46.2433 12.084 45.6913 12.084C44.9873 12.084 44.3673 11.944 43.8313 11.664C43.2953 11.384 42.8793 10.996 42.5833 10.5C42.2953 9.996 42.1513 9.428 42.1513 8.796C42.1513 8.172 42.2913 7.612 42.5713 7.116C42.8593 6.612 43.2553 6.22 43.7593 5.94C44.2633 5.66 44.8313 5.52 45.4633 5.52C46.0873 5.52 46.6433 5.66 47.1313 5.94C47.6273 6.212 48.0113 6.6 48.2833 7.104C48.5633 7.6 48.7033 8.176 48.7033 8.832ZM45.4633 6.72C44.9833 6.72 44.5753 6.864 44.2393 7.152C43.9113 7.432 43.7113 7.808 43.6393 8.28H47.2753C47.2113 7.816 47.0153 7.44 46.6873 7.152C46.3593 6.864 45.9513 6.72 45.4633 6.72Z" fill="white"/>
<path d="M49.194 3.891C49.392 3.891 49.571 3.937 49.731 4.029C49.893 4.121 50.02 4.248 50.112 4.41C50.204 4.57 50.25 4.748 50.25 4.944C50.25 5.14 50.203 5.32 50.109 5.484C50.015 5.646 49.887 5.774 49.725 5.868C49.563 5.962 49.384 6.009 49.188 6.009C48.992 6.009 48.813 5.962 48.651 5.868C48.491 5.774 48.364 5.646 48.27 5.484C48.178 5.322 48.132 5.144 48.132 4.95C48.132 4.756 48.178 4.578 48.27 4.416C48.364 4.254 48.492 4.126 48.654 4.032C48.816 3.938 48.996 3.891 49.194 3.891ZM49.188 5.844C49.354 5.844 49.504 5.804 49.638 5.724C49.774 5.644 49.881 5.536 49.959 5.4C50.037 5.262 50.076 5.11 50.076 4.944C50.076 4.778 50.038 4.628 49.962 4.494C49.886 4.358 49.781 4.251 49.647 4.173C49.513 4.095 49.362 4.056 49.194 4.056C49.026 4.056 48.874 4.096 48.738 4.176C48.602 4.254 48.495 4.361 48.417 4.497C48.341 4.633 48.303 4.784 48.303 4.95C48.303 5.116 48.341 5.267 48.417 5.403C48.495 5.539 48.601 5.647 48.735 5.727C48.871 5.805 49.022 5.844 49.188 5.844ZM49.737 4.77C49.737 4.858 49.716 4.933 49.674 4.995C49.634 5.057 49.576 5.104 49.5 5.136L49.764 5.541H49.506L49.272 5.181H49.239H49.005V5.541H48.747V4.359H49.239C49.393 4.359 49.514 4.396 49.602 4.47C49.692 4.544 49.737 4.644 49.737 4.77ZM49.224 4.98C49.308 4.98 49.373 4.962 49.419 4.926C49.465 4.888 49.488 4.836 49.488 4.77C49.488 4.704 49.465 4.653 49.419 4.617C49.373 4.581 49.308 4.563 49.224 4.563H49.002V4.98H49.224Z" fill="white"/>
</svg>
